<svg width="51" height="51" viewBox="0 0 51 51" fill="none" xmlns="http://www.w3.org/2000/svg">
<g filter="url(#filter0_bii_2978_1391)">
<circle cx="25.2646" cy="25.2646" r="25.2646" fill="white" fill-opacity="0.04"/>
</g>
<path d="M16.752 31.16C15.6213 31.16 14.6613 30.8187 13.872 30.136C13.0933 29.4427 12.704 28.5787 12.704 27.544H14.096C14.1387 28.216 14.4107 28.7653 14.912 29.192C15.4133 29.608 16.0267 29.816 16.752 29.816C17.4133 29.816 17.9627 29.6347 18.4 29.272C18.8373 28.9093 19.056 28.408 19.056 27.768C19.056 27.0853 18.832 26.5733 18.384 26.232C17.9467 25.8907 17.344 25.72 16.576 25.72H15.728V24.456H16.64C17.248 24.456 17.744 24.2853 18.128 23.944C18.5227 23.6027 18.7253 23.16 18.736 22.616C18.736 22.0827 18.5387 21.6453 18.144 21.304C17.76 20.9627 17.2747 20.792 16.688 20.792C16.016 20.792 15.4507 20.9893 14.992 21.384C14.5333 21.7787 14.304 22.328 14.304 23.032H12.896C12.896 21.944 13.2587 21.0747 13.984 20.424C14.7093 19.7733 15.6107 19.448 16.688 19.448C17.68 19.448 18.5013 19.736 19.152 20.312C19.8133 20.8773 20.144 21.6293 20.144 22.568C20.1333 23.112 19.984 23.6027 19.696 24.04C19.4187 24.4773 19.056 24.8133 18.608 25.048C19.184 25.2827 19.6373 25.6453 19.968 26.136C20.2987 26.616 20.464 27.176 20.464 27.816C20.464 28.808 20.1173 29.6133 19.424 30.232C18.7307 30.8507 17.84 31.16 16.752 31.16ZM29.4253 29.672V31H22.0653V30.456C22.0653 30.0613 22.1239 29.688 22.2413 29.336C22.3693 28.9733 22.5079 28.6693 22.6573 28.424C22.8066 28.1787 23.0413 27.9067 23.3613 27.608C23.6813 27.2987 23.9319 27.0747 24.1133 26.936C24.2946 26.7867 24.5986 26.5627 25.0253 26.264C25.4519 25.9547 25.7346 25.752 25.8733 25.656C26.6306 25.1013 27.1533 24.6373 27.4413 24.264C27.7399 23.88 27.8893 23.3787 27.8893 22.76C27.8893 22.1627 27.6973 21.688 27.3133 21.336C26.9293 20.9733 26.4279 20.792 25.8093 20.792C25.1586 20.792 24.6039 20.9893 24.1453 21.384C23.6866 21.7787 23.4573 22.328 23.4573 23.032H22.0493C22.0493 21.9653 22.4013 21.1013 23.1053 20.44C23.8199 19.7787 24.7159 19.448 25.7933 19.448C26.7959 19.448 27.6279 19.736 28.2893 20.312C28.9613 20.888 29.2973 21.7093 29.2973 22.776C29.2973 23.5867 29.0999 24.28 28.7053 24.856C28.3106 25.4213 27.6333 26.0507 26.6733 26.744C26.4919 26.872 26.2359 27.0533 25.9053 27.288C25.5746 27.512 25.3186 27.6933 25.1373 27.832C24.9559 27.9707 24.7533 28.1413 24.5293 28.344C24.3159 28.536 24.1453 28.744 24.0173 28.968C23.8999 29.1813 23.8146 29.416 23.7613 29.672H29.4253ZM30.8111 26.984V25.752H33.5791V23H34.8271V25.752H37.5791V26.984H34.8271V29.736H33.5791V26.984H30.8111Z" fill="#F5F5F5" fill-opacity="0.8"/>
<defs>
<filter id="filter0_bii_2978_1391" x="-6.66813" y="-6.66813" width="63.8656" height="63.8656" filterUnits="userSpaceOnUse" color-interpolation-filters="sRGB">
<feFlood flood-opacity="0" result="BackgroundImageFix"/>
<feGaussianBlur in="BackgroundImageFix" stdDeviation="3.33406"/>
<feComposite in2="SourceAlpha" operator="in" result="effect1_backgroundBlur_2978_1391"/>
<feBlend mode="normal" in="SourceGraphic" in2="effect1_backgroundBlur_2978_1391" result="shape"/>
<feColorMatrix in="SourceAlpha" type="matrix" values="0 0 0 0 0 0 0 0 0 0 0 0 0 0 0 0 0 0 127 0" result="hardAlpha"/>
<feOffset/>
<feGaussianBlur stdDeviation="4.33428"/>
<feComposite in2="hardAlpha" operator="arithmetic" k2="-1" k3="1"/>
<feColorMatrix type="matrix" values="0 0 0 0 1 0 0 0 0 1 0 0 0 0 1 0 0 0 0.09 0"/>
<feBlend mode="normal" in2="shape" result="effect2_innerShadow_2978_1391"/>
<feColorMatrix in="SourceAlpha" type="matrix" values="0 0 0 0 0 0 0 0 0 0 0 0 0 0 0 0 0 0 127 0" result="hardAlpha"/>
<feOffset dy="1.00022"/>
<feGaussianBlur stdDeviation="0.50011"/>
<feComposite in2="hardAlpha" operator="arithmetic" k2="-1" k3="1"/>
<feColorMatrix type="matrix" values="0 0 0 0 1 0 0 0 0 1 0 0 0 0 1 0 0 0 0.16 0"/>
<feBlend mode="normal" in2="effect2_innerShadow_2978_1391" result="effect3_innerShadow_2978_1391"/>
</filter>
</defs>
</svg>
