<svg width="72" height="72" viewBox="0 0 72 72" fill="none" xmlns="http://www.w3.org/2000/svg">
<path d="M12 53.9425V29.1226C12 18.2225 12 12.7724 15.5147 9.38622C19.0294 6 24.6863 6 36 6C47.3137 6 52.9706 6 56.4853 9.38622C60 12.7724 60 18.2225 60 29.1226V53.9425C60 60.86 60 64.3188 57.6815 65.5568C53.1916 67.9543 44.7696 59.9556 40.77 57.5472C38.4504 56.1505 37.2906 55.4521 36 55.4521C34.7094 55.4521 33.5496 56.1505 31.23 57.5472C27.2304 59.9556 18.8084 67.9543 14.3185 65.5568C12 64.3188 12 60.86 12 53.9425Z" stroke="white" stroke-width="4.5" stroke-linecap="round" stroke-linejoin="round"/>
</svg>
