<svg width="339" height="102" viewBox="0 0 339 102" fill="none" xmlns="http://www.w3.org/2000/svg">
<path d="M155.65 35.4272C153.605 35.4272 151.702 35.0777 149.942 34.3786C148.207 33.6537 146.68 32.644 145.359 31.3495C144.065 30.0551 143.055 28.5535 142.33 26.8447C141.605 25.1101 141.243 23.2461 141.243 21.2525C141.243 19.259 141.605 17.4079 142.33 15.6992C143.055 13.9646 144.065 12.463 145.359 11.1944C146.654 9.92578 148.168 8.94197 149.903 8.24295C151.663 7.51803 153.566 7.15558 155.612 7.15558C157.786 7.15558 159.715 7.50509 161.398 8.20411C163.107 8.90313 164.595 9.86105 165.864 11.0779L161.786 15.1943C161.061 14.4176 160.181 13.8092 159.145 13.3691C158.136 12.929 156.958 12.7089 155.612 12.7089C154.421 12.7089 153.32 12.916 152.311 13.3303C151.327 13.7186 150.472 14.2882 149.747 15.039C149.048 15.7898 148.492 16.6959 148.078 17.7574C147.689 18.8189 147.495 19.9839 147.495 21.2525C147.495 22.547 147.689 23.725 148.078 24.7865C148.492 25.848 149.048 26.7541 149.747 27.5049C150.472 28.2557 151.327 28.8382 152.311 29.2525C153.32 29.6667 154.421 29.8738 155.612 29.8738C157.01 29.8738 158.226 29.6538 159.262 29.2136C160.298 28.7735 161.191 28.1651 161.942 27.3884L166.058 31.5049C164.738 32.7217 163.223 33.6796 161.514 34.3786C159.832 35.0777 157.877 35.4272 155.65 35.4272ZM169.415 35V7.58276H175.512V35H169.415ZM186.386 35V7.58276H192.522V35H186.386ZM173.066 23.5438V18.2623H188.406V23.5438H173.066ZM195.725 35L206.598 7.58276H212.113L222.87 35H216.424L208.191 12.2429H210.404L202.055 35H195.725ZM201.899 30.0292V25.0583H216.851V30.0292H201.899ZM225.771 35V7.58276H231.868V35H225.771ZM237.148 35V7.58276H241.42L243.245 13.0584V35H237.148ZM256.061 35L239.906 14.3011L241.42 7.58276L257.575 28.2816L256.061 35ZM256.061 35L254.43 29.5243V7.58276H260.527V35H256.061ZM160.039 88L152.388 75.7671H151.65L141.087 60.5828H148.349L155.883 72.0778H156.621L167.184 88H160.039ZM140.583 88L150.718 73.3205L155.417 75.9613L147.534 88H140.583ZM156.854 75.0681L152.155 72.4273L159.767 60.5828H166.718L156.854 75.0681ZM182.084 88.4272C180.038 88.4272 178.135 88.0777 176.375 87.3786C174.64 86.6537 173.113 85.644 171.793 84.3495C170.498 83.0551 169.488 81.5535 168.763 79.8447C168.038 78.1101 167.676 76.2461 167.676 74.2525C167.676 72.259 168.038 70.4079 168.763 68.6992C169.488 66.9646 170.498 65.463 171.793 64.1944C173.087 62.9258 174.602 61.942 176.336 61.2429C178.097 60.518 180 60.1556 182.045 60.1556C184.22 60.1556 186.148 60.5051 187.831 61.2041C189.54 61.9031 191.029 62.8611 192.297 64.0779L188.22 68.1943C187.495 67.4176 186.614 66.8092 185.579 66.3691C184.569 65.929 183.391 65.7089 182.045 65.7089C180.854 65.7089 179.754 65.916 178.744 66.3303C177.76 66.7186 176.906 67.2882 176.181 68.039C175.482 68.7898 174.925 69.6959 174.511 70.7574C174.123 71.8189 173.928 72.9839 173.928 74.2525C173.928 75.547 174.123 76.725 174.511 77.7865C174.925 78.848 175.482 79.7541 176.181 80.5049C176.906 81.2557 177.76 81.8382 178.744 82.2525C179.754 82.6667 180.854 82.8738 182.045 82.8738C183.443 82.8738 184.66 82.6538 185.695 82.2136C186.731 81.7735 187.624 81.1651 188.375 80.3884L192.491 84.5049C191.171 85.7217 189.656 86.6796 187.948 87.3786C186.265 88.0777 184.31 88.4272 182.084 88.4272ZM195.849 88V60.5828H201.946V88H195.849ZM212.819 88V60.5828H218.955V88H212.819ZM199.499 76.5438V71.2623H214.839V76.5438H199.499ZM222.158 88L233.032 60.5828H238.546L249.303 88H242.857L234.624 65.2429H236.837L228.488 88H222.158ZM228.333 83.0292V78.0583H243.284V83.0292H228.333ZM252.204 88V60.5828H256.476L258.301 66.0584V88H252.204ZM271.117 88L254.962 67.3011L256.476 60.5828L272.631 81.2816L271.117 88ZM271.117 88L269.486 82.5243V60.5828H275.583V88H271.117ZM293.807 88.4272C291.814 88.4272 289.937 88.0647 288.176 87.3398C286.442 86.6149 284.927 85.6181 283.633 84.3495C282.338 83.0551 281.315 81.5535 280.565 79.8447C279.84 78.1101 279.477 76.2461 279.477 74.2525C279.477 72.259 279.853 70.4079 280.603 68.6992C281.354 66.9905 282.39 65.5018 283.71 64.2332C285.057 62.9387 286.623 61.942 288.409 61.2429C290.196 60.518 292.111 60.1556 294.157 60.1556C296.513 60.1556 298.649 60.5828 300.564 61.4371C302.506 62.2915 304.111 63.4695 305.38 64.9711L301.225 69.1264C300.344 67.9872 299.309 67.1329 298.118 66.5633C296.927 65.9937 295.581 65.7089 294.079 65.7089C292.474 65.7089 291.037 66.0714 289.768 66.7963C288.5 67.4953 287.503 68.4921 286.778 69.7866C286.079 71.0552 285.73 72.5438 285.73 74.2525C285.73 75.9613 286.079 77.4629 286.778 78.7574C287.477 80.0518 288.435 81.0615 289.652 81.7865C290.869 82.5114 292.267 82.8738 293.846 82.8738C295.451 82.8738 296.81 82.5761 297.924 81.9806C299.063 81.3593 299.93 80.479 300.526 79.3399C301.147 78.1748 301.458 76.7638 301.458 75.1069L305.496 77.8253L293.264 77.6312V72.4662H307.671V73.3593C307.671 76.6473 307.076 79.4175 305.885 81.67C304.72 83.8965 303.089 85.5793 300.992 86.7185C298.92 87.8576 296.526 88.4272 293.807 88.4272ZM311.367 88V60.5828H317.464V88H311.367ZM316.027 88V82.7185H331.056V88H316.027ZM316.027 76.5438V71.4565H329.697V76.5438H316.027ZM316.027 65.8254V60.5828H330.862V65.8254H316.027Z" fill="white"/>
<path d="M99.7838 25.9731V3.62695L79.7976 5.76569L85.8451 11.8132H89.4588L80.6089 20.4419L77.9539 18.3769H70.8002L64.0889 25.0881H72.7914L75.0039 23.3919L78.8843 27.2722C79.6331 28.0211 80.8472 28.0211 81.596 27.2722L93.5888 15.2794V19.7781L99.7838 25.9731Z" fill="url(#paint0_linear_31_741)"/>
<path d="M76.8477 36.0765L88.4264 24.3503V32.3152L80.9776 40.4277H75.7414L71.9802 36.0765H76.8477Z" fill="url(#paint1_linear_31_741)"/>
<path d="M65.1215 32.979H76.1102V30.619L74.3945 28.6715C73.7504 27.9404 72.8232 27.5215 71.8489 27.5215H60.7702L56.9352 31.7252V39.9852L62.8352 45.2952V35.2652L65.1215 32.979Z" fill="url(#paint2_linear_31_741)"/>
<path d="M65.4165 46.1802V36.0765H67.9239L71.3902 39.3215V50.0889L63.6465 57.3164L50.3717 57.0091C48.8955 56.9749 47.7165 55.7684 47.7165 54.2918C47.7165 52.8158 48.8944 51.6096 50.3699 51.5745L60.1065 51.3427L65.4165 46.1802Z" fill="url(#paint3_linear_31_741)"/>
<path d="M60.1065 48.9827L54.5753 43.2302H44.2503L36.3591 51.1214V59.8239L47.274 48.9827H60.1065Z" fill="url(#paint4_linear_31_741)"/>
<path d="M55.7552 64.1014V59.8239H50.2978V61.0039L41.4478 70.0013H49.4128L55.7552 64.1014Z" fill="url(#paint5_linear_31_741)"/>
<path d="M38.629 69.7964L44.4557 63.9697C45.6864 62.739 45.6864 60.7437 44.4557 59.5131C43.2375 58.2948 41.2667 58.2807 40.0312 59.4815L34.1218 65.2244C32.8376 66.4725 32.8229 68.5301 34.0892 69.7964C35.3428 71.05 37.3754 71.05 38.629 69.7964Z" fill="url(#paint6_linear_31_741)"/>
<path d="M33.9253 62.2576V58.9389H29.0579L21.5354 66.4613V82.3913H36.3591L42.9228 76.3438V73.2463H37.6866L35.3967 74.9064C33.3404 76.3973 30.4925 76.1065 28.78 74.2308C26.9918 72.2724 27.0471 69.2576 28.9058 67.366L33.9253 62.2576Z" fill="url(#paint7_linear_31_741)"/>
<circle cx="58.363" cy="18.2673" r="2.21458" fill="url(#paint8_linear_31_741)"/>
<circle cx="88.7107" cy="48.9431" r="2.21458" fill="url(#paint9_linear_31_741)"/>
<circle cx="58.363" cy="79.2907" r="2.21458" fill="url(#paint10_linear_31_741)"/>
<circle cx="28.343" cy="48.9431" r="2.21458" fill="url(#paint11_linear_31_741)"/>
<path d="M31.1739 92.9289C40.2011 98.0831 50.6559 100.172 60.9706 98.8819C71.2852 97.5919 80.9036 92.9928 88.3835 85.7742C95.8633 78.5557 100.801 69.1067 102.457 58.8445C104.113 48.5822 102.397 38.0597 97.5666 28.8551L91.0172 32.2919C95.1041 40.0801 96.5559 48.9833 95.155 57.6664C93.7541 66.3494 89.576 74.3443 83.2472 80.4521C76.9184 86.5598 68.7801 90.4512 60.0527 91.5427C51.3254 92.6341 42.4794 90.8668 34.8413 86.5057L31.1739 92.9289Z" fill="url(#paint12_linear_31_741)"/>
<path d="M12.0259 72.5331C7.41722 63.3395 5.87888 52.9101 7.6369 42.7773C9.39492 32.6446 14.3566 23.343 21.7928 16.2391C29.2291 9.13527 38.7478 4.60385 48.9502 3.31072C59.1527 2.01758 69.5009 4.03092 78.4744 9.05488L74.8611 15.5086C67.2685 11.2578 58.5127 9.55426 49.8803 10.6484C41.2478 11.7425 33.1939 15.5766 26.902 21.5873C20.6101 27.598 16.4119 35.4683 14.9244 44.0417C13.4369 52.6152 14.7385 61.4397 18.638 69.2185L12.0259 72.5331Z" fill="url(#paint13_linear_31_741)"/>
<path d="M41.9579 25.3057L43.3127 29.4753H47.6969L44.15 32.0523L45.5048 36.2219L41.9579 33.6449L38.411 36.2219L39.7658 32.0523L36.2189 29.4753H40.6031L41.9579 25.3057Z" fill="url(#paint14_linear_31_741)"/>
<path d="M75.8283 58.0078L77.1831 62.1774H81.5673L78.0204 64.7544L79.3752 68.9241L75.8283 66.3471L72.2814 68.9241L73.6362 64.7544L70.0893 62.1774H74.4735L75.8283 58.0078Z" fill="url(#paint15_linear_31_741)"/>
<defs>
<linearGradient id="paint0_linear_31_741" x1="93.3475" y1="-5.67569" x2="27.5536" y2="76.8587" gradientUnits="userSpaceOnUse">
<stop stop-color="#03E3ED"/>
<stop offset="1" stop-color="#961FFB"/>
</linearGradient>
<linearGradient id="paint1_linear_31_741" x1="93.3475" y1="-5.67569" x2="27.5536" y2="76.8587" gradientUnits="userSpaceOnUse">
<stop stop-color="#03E3ED"/>
<stop offset="1" stop-color="#961FFB"/>
</linearGradient>
<linearGradient id="paint2_linear_31_741" x1="93.3475" y1="-5.67569" x2="27.5536" y2="76.8587" gradientUnits="userSpaceOnUse">
<stop stop-color="#03E3ED"/>
<stop offset="1" stop-color="#961FFB"/>
</linearGradient>
<linearGradient id="paint3_linear_31_741" x1="93.3475" y1="-5.67569" x2="27.5536" y2="76.8587" gradientUnits="userSpaceOnUse">
<stop stop-color="#03E3ED"/>
<stop offset="1" stop-color="#961FFB"/>
</linearGradient>
<linearGradient id="paint4_linear_31_741" x1="93.3475" y1="-5.67569" x2="27.5536" y2="76.8587" gradientUnits="userSpaceOnUse">
<stop stop-color="#03E3ED"/>
<stop offset="1" stop-color="#961FFB"/>
</linearGradient>
<linearGradient id="paint5_linear_31_741" x1="93.3475" y1="-5.67569" x2="27.5536" y2="76.8587" gradientUnits="userSpaceOnUse">
<stop stop-color="#03E3ED"/>
<stop offset="1" stop-color="#961FFB"/>
</linearGradient>
<linearGradient id="paint6_linear_31_741" x1="93.3475" y1="-5.67569" x2="27.5536" y2="76.8587" gradientUnits="userSpaceOnUse">
<stop stop-color="#03E3ED"/>
<stop offset="1" stop-color="#961FFB"/>
</linearGradient>
<linearGradient id="paint7_linear_31_741" x1="93.3475" y1="-5.67569" x2="27.5536" y2="76.8587" gradientUnits="userSpaceOnUse">
<stop stop-color="#03E3ED"/>
<stop offset="1" stop-color="#961FFB"/>
</linearGradient>
<linearGradient id="paint8_linear_31_741" x1="58.363" y1="16.0527" x2="58.363" y2="20.4819" gradientUnits="userSpaceOnUse">
<stop stop-color="#03E3ED"/>
<stop offset="1" stop-color="#961FFB"/>
</linearGradient>
<linearGradient id="paint9_linear_31_741" x1="88.7107" y1="46.7285" x2="88.7107" y2="51.1577" gradientUnits="userSpaceOnUse">
<stop stop-color="#03E3ED"/>
<stop offset="1" stop-color="#961FFB"/>
</linearGradient>
<linearGradient id="paint10_linear_31_741" x1="58.363" y1="77.0762" x2="58.363" y2="81.5053" gradientUnits="userSpaceOnUse">
<stop stop-color="#03E3ED"/>
<stop offset="1" stop-color="#961FFB"/>
</linearGradient>
<linearGradient id="paint11_linear_31_741" x1="28.343" y1="46.7285" x2="28.343" y2="51.1577" gradientUnits="userSpaceOnUse">
<stop stop-color="#03E3ED"/>
<stop offset="1" stop-color="#961FFB"/>
</linearGradient>
<linearGradient id="paint12_linear_31_741" x1="51.9815" y1="3.21958" x2="58.0306" y2="99.1581" gradientUnits="userSpaceOnUse">
<stop stop-color="#03E3ED"/>
<stop offset="1" stop-color="#961FFB"/>
</linearGradient>
<linearGradient id="paint13_linear_31_741" x1="102.963" y1="47.9692" x2="7.02467" y2="54.0183" gradientUnits="userSpaceOnUse">
<stop stop-color="#03E3ED"/>
<stop offset="1" stop-color="#961FFB"/>
</linearGradient>
<linearGradient id="paint14_linear_31_741" x1="41.9579" y1="25.3057" x2="41.9579" y2="37.3744" gradientUnits="userSpaceOnUse">
<stop stop-color="#03E3ED"/>
<stop offset="1" stop-color="#961FFB"/>
</linearGradient>
<linearGradient id="paint15_linear_31_741" x1="75.8283" y1="58.0078" x2="75.8283" y2="70.0765" gradientUnits="userSpaceOnUse">
<stop stop-color="#03E3ED"/>
<stop offset="1" stop-color="#961FFB"/>
</linearGradient>
</defs>
</svg>
