<svg width="14" height="14" viewBox="0 0 14 14" fill="none" xmlns="http://www.w3.org/2000/svg">
<g id="Eye" clip-path="url(#clip0_11_1431)">
<path id="Vector" d="M7.11779 2.97775C4.44875 2.97775 2.1694 4.63789 1.24591 6.9813C2.1694 9.32471 4.44875 10.9849 7.11779 10.9849C9.78949 10.9849 12.0662 9.32471 12.9897 6.9813C12.0662 4.63789 9.78949 2.97775 7.11779 2.97775ZM7.11779 9.65034C5.64448 9.65034 4.44875 8.45461 4.44875 6.9813C4.44875 5.50799 5.64448 4.31227 7.11779 4.31227C8.5911 4.31227 9.78682 5.50799 9.78682 6.9813C9.78682 8.45461 8.5911 9.65034 7.11779 9.65034ZM7.11779 5.37988C6.23434 5.37988 5.51637 6.09785 5.51637 6.9813C5.51637 7.86475 6.23434 8.58272 7.11779 8.58272C8.00124 8.58272 8.71921 7.86475 8.71921 6.9813C8.71921 6.09785 8.00124 5.37988 7.11779 5.37988Z" fill="white"/>
<line id="Line 5" x1="11.263" y1="2.58564" x2="1.86804" y2="11.9806" stroke="white" stroke-width="0.854091"/>
</g>
<defs>
<clipPath id="clip0_11_1431">
<rect width="12.8114" height="12.8114" fill="white" transform="translate(0.712463 0.574562)"/>
</clipPath>
</defs>
</svg>
