<svg width="40" height="40" viewBox="0 0 40 40" fill="none" xmlns="http://www.w3.org/2000/svg">
<g filter="url(#filter0_bii_344_23807)">
<circle cx="20" cy="20" r="20" fill="white" fill-opacity="0.04"/>
</g>
<path d="M25 20C25 22.7614 22.7614 25 20 25C17.2386 25 15 22.7614 15 20C15 17.2386 17.2386 15 20 15C22.7614 15 25 17.2386 25 20Z" stroke="white" stroke-width="1.5"/>
<path d="M20 10V11.5M20 28.5V30M27.0708 27.0713L26.0101 26.0106M13.9893 13.9893L12.9286 12.9286M30 20H28.5M11.5 20H10M27.0713 12.9287L26.0106 13.9894M13.9897 26.0107L12.9291 27.0714" stroke="white" stroke-width="1.5" stroke-linecap="round"/>
<defs>
<filter id="filter0_bii_344_23807" x="-5.27863" y="-5.27863" width="50.5573" height="50.5573" filterUnits="userSpaceOnUse" color-interpolation-filters="sRGB">
<feFlood flood-opacity="0" result="BackgroundImageFix"/>
<feGaussianBlur in="BackgroundImageFix" stdDeviation="2.63932"/>
<feComposite in2="SourceAlpha" operator="in" result="effect1_backgroundBlur_344_23807"/>
<feBlend mode="normal" in="SourceGraphic" in2="effect1_backgroundBlur_344_23807" result="shape"/>
<feColorMatrix in="SourceAlpha" type="matrix" values="0 0 0 0 0 0 0 0 0 0 0 0 0 0 0 0 0 0 127 0" result="hardAlpha"/>
<feOffset/>
<feGaussianBlur stdDeviation="3.43111"/>
<feComposite in2="hardAlpha" operator="arithmetic" k2="-1" k3="1"/>
<feColorMatrix type="matrix" values="0 0 0 0 1 0 0 0 0 1 0 0 0 0 1 0 0 0 0.09 0"/>
<feBlend mode="normal" in2="shape" result="effect2_innerShadow_344_23807"/>
<feColorMatrix in="SourceAlpha" type="matrix" values="0 0 0 0 0 0 0 0 0 0 0 0 0 0 0 0 0 0 127 0" result="hardAlpha"/>
<feOffset dy="0.791795"/>
<feGaussianBlur stdDeviation="0.395898"/>
<feComposite in2="hardAlpha" operator="arithmetic" k2="-1" k3="1"/>
<feColorMatrix type="matrix" values="0 0 0 0 1 0 0 0 0 1 0 0 0 0 1 0 0 0 0.16 0"/>
<feBlend mode="normal" in2="effect2_innerShadow_344_23807" result="effect3_innerShadow_344_23807"/>
</filter>
</defs>
</svg>
