<svg width="34" height="34" viewBox="0 0 34 34" fill="none" xmlns="http://www.w3.org/2000/svg">
<path d="M2.8335 25.5C2.8335 23.3177 2.8335 22.2266 3.3247 21.425C3.59955 20.9765 3.97665 20.5994 4.42517 20.3245C5.22673 19.8333 6.31788 19.8333 8.50016 19.8333C10.6824 19.8333 11.7736 19.8333 12.5752 20.3245C13.0237 20.5994 13.4008 20.9765 13.6756 21.425C14.1668 22.2266 14.1668 23.3177 14.1668 25.5C14.1668 27.6823 14.1668 28.7734 13.6756 29.575C13.4008 30.0235 13.0237 30.4006 12.5752 30.6755C11.7736 31.1667 10.6824 31.1667 8.50016 31.1667C6.31788 31.1667 5.22673 31.1667 4.42517 30.6755C3.97665 30.4006 3.59955 30.0235 3.3247 29.575C2.8335 28.7734 2.8335 27.6823 2.8335 25.5Z" fill="#0ECB81" stroke="#0ECB81" stroke-width="2.125"/>
<path d="M19.8335 25.5C19.8335 23.3177 19.8335 22.2266 20.3247 21.425C20.5995 20.9765 20.9766 20.5994 21.4252 20.3245C22.2267 19.8333 23.3179 19.8333 25.5002 19.8333C27.6824 19.8333 28.7736 19.8333 29.5752 20.3245C30.0237 20.5994 30.4008 20.9765 30.6756 21.425C31.1668 22.2266 31.1668 23.3177 31.1668 25.5C31.1668 27.6823 31.1668 28.7734 30.6756 29.575C30.4008 30.0235 30.0237 30.4006 29.5752 30.6755C28.7736 31.1667 27.6824 31.1667 25.5002 31.1667C23.3179 31.1667 22.2267 31.1667 21.4252 30.6755C20.9766 30.4006 20.5995 30.0235 20.3247 29.575C19.8335 28.7734 19.8335 27.6823 19.8335 25.5Z" stroke="#C8C8C8" stroke-width="2.125"/>
<path d="M2.8335 8.5C2.8335 6.31771 2.8335 5.22657 3.3247 4.425C3.59955 3.97649 3.97665 3.59938 4.42517 3.32453C5.22673 2.83333 6.31788 2.83333 8.50016 2.83333C10.6824 2.83333 11.7736 2.83333 12.5752 3.32453C13.0237 3.59938 13.4008 3.97649 13.6756 4.425C14.1668 5.22657 14.1668 6.31771 14.1668 8.5C14.1668 10.6823 14.1668 11.7734 13.6756 12.575C13.4008 13.0235 13.0237 13.4006 12.5752 13.6755C11.7736 14.1667 10.6824 14.1667 8.50016 14.1667C6.31788 14.1667 5.22673 14.1667 4.42517 13.6755C3.97665 13.4006 3.59955 13.0235 3.3247 12.575C2.8335 11.7734 2.8335 10.6823 2.8335 8.5Z" fill="#F6465D" stroke="#F6465D" stroke-width="2.125"/>
<path d="M19.8335 8.5C19.8335 6.31771 19.8335 5.22657 20.3247 4.425C20.5995 3.97649 20.9766 3.59938 21.4252 3.32453C22.2267 2.83333 23.3179 2.83333 25.5002 2.83333C27.6824 2.83333 28.7736 2.83333 29.5752 3.32453C30.0237 3.59938 30.4008 3.97649 30.6756 4.425C31.1668 5.22657 31.1668 6.31771 31.1668 8.5C31.1668 10.6823 31.1668 11.7734 30.6756 12.575C30.4008 13.0235 30.0237 13.4006 29.5752 13.6755C28.7736 14.1667 27.6824 14.1667 25.5002 14.1667C23.3179 14.1667 22.2267 14.1667 21.4252 13.6755C20.9766 13.4006 20.5995 13.0235 20.3247 12.575C19.8335 11.7734 19.8335 10.6823 19.8335 8.5Z" stroke="#C8C8C8" stroke-width="2.125"/>
</svg>
