<svg width="10" height="10" viewBox="0 0 17 17" fill="none" xmlns="http://www.w3.org/2000/svg">
<path d="M14.8711 4.23454C12.5123 4.00079 10.1394 3.88037 7.77359 3.88037C6.37109 3.88037 4.96859 3.9512 3.56609 4.09287L2.12109 4.23454" stroke="#F5F5F5" stroke-width="1.1" stroke-linecap="round" stroke-linejoin="round"/>
<path d="M6.01953 3.52074L6.17536 2.59283C6.2887 1.91991 6.3737 1.41699 7.57078 1.41699H9.42661C10.6237 1.41699 10.7158 1.94824 10.822 2.59991L10.9779 3.52074" stroke="#F5F5F5" stroke-width="1.1" stroke-linecap="round" stroke-linejoin="round"/>
<path d="M13.3526 6.47412L12.8922 13.607C12.8143 14.7191 12.7505 15.5833 10.7743 15.5833H6.22677C4.25052 15.5833 4.18677 14.7191 4.10885 13.607L3.64844 6.47412" stroke="#F5F5F5" stroke-width="1.1" stroke-linecap="round" stroke-linejoin="round"/>
<path d="M7.32031 11.6865H9.67906" stroke="#F5F5F5" stroke-width="1.1" stroke-linecap="round" stroke-linejoin="round"/>
<path d="M6.73047 8.85498H10.2721" stroke="#F5F5F5" stroke-width="1.1" stroke-linecap="round" stroke-linejoin="round"/>
</svg>
