<svg width="168" height="30" viewBox="0 0 168 30" fill="none" xmlns="http://www.w3.org/2000/svg">
<mask id="mask0_15_850" style="mask-type:luminance" maskUnits="userSpaceOnUse" x="4" y="2" width="6" height="21">
<path d="M9.16554 22.6936L9.1105 5.54238C9.10548 3.99153 7.96674 2.7307 6.58839 2.74041C5.20937 2.75088 4.0941 4.0312 4.09905 5.57926L4.15356 22.6936H9.16554Z" fill="white"/>
</mask>
<g mask="url(#mask0_15_850)">
<path d="M6.60623 1.17861L17.4431 13.3765L6.65946 25.5144L-4.17743 13.3166L6.60623 1.17861Z" fill="#B801F5"/>
</g>
<path opacity="0.3" fill-rule="evenodd" clip-rule="evenodd" d="M6.90835 22.694L6.88729 12.0626L6.88662 12.0083L6.88541 11.7016L6.86502 8.31907C6.85572 6.76822 5.72126 5.50739 4.34284 5.51718C4.26173 5.51861 4.18127 5.52275 4.10076 5.53253C4.115 4.00261 5.22592 2.75081 6.5907 2.74103C7.96912 2.73124 9.10351 3.99214 9.11281 5.54299L9.1326 8.90605L9.17219 22.6941L6.90835 22.694Z" fill="#9900CE"/>
<path d="M55.4886 20V17.4427H58.7316C59.5222 17.4427 60.2141 17.2883 60.8071 16.9794C61.4001 16.6582 61.8572 16.1949 62.1784 15.5896C62.4996 14.9842 62.6602 14.2677 62.6602 13.4399C62.6602 12.6122 62.4934 11.9018 62.1599 11.3088C61.8386 10.7158 61.3815 10.2587 60.7885 9.93753C60.2079 9.61632 59.5222 9.45572 58.7316 9.45572H55.3959V6.91693H58.7686C59.757 6.91693 60.665 7.07754 61.4927 7.39875C62.3328 7.7076 63.0617 8.15853 63.6794 8.75153C64.3095 9.33217 64.7913 10.024 65.1249 10.827C65.4708 11.6177 65.6437 12.4948 65.6437 13.4585C65.6437 14.4097 65.4708 15.2869 65.1249 16.0899C64.7913 16.8929 64.3157 17.5848 63.6979 18.1654C63.0802 18.7461 62.3513 19.197 61.5113 19.5182C60.6835 19.8394 59.7817 20 58.8057 20H55.4886ZM53.5243 20V6.91693H56.4337V20H53.5243ZM67.4951 20V6.91693H70.4045V20H67.4951ZM71.942 20L77.1308 6.91693H79.7622L84.8954 20H81.8192L77.8906 9.14068H78.9469L74.9626 20H71.942ZM74.8885 17.628V15.256H82.023V17.628H74.8885ZM86.2797 20V6.91693H88.3552L93.5069 14.941H92.4506L97.5838 6.91693H99.6778V20H96.7684V11.8277L97.2873 11.9574L93.9331 17.1832H92.0059L88.6703 11.9574L89.1706 11.8277V20H86.2797ZM101.205 20L106.394 6.91693H109.025L114.158 20H111.082L107.153 9.14068H108.21L104.225 20H101.205ZM104.151 17.628V15.256H111.286V17.628H104.151ZM115.542 20V6.91693H117.581L118.452 9.52984V20H115.542ZM124.567 20L116.858 10.1228L117.581 6.91693L125.29 16.7941L124.567 20ZM124.567 20L123.789 17.3871V6.91693H126.698V20H124.567ZM132.43 20V7.10225H135.339V20H132.43ZM128.334 9.45572V6.91693H139.434V9.45572H128.334ZM141.059 20V6.91693H143.969V20H141.059ZM143.283 20V17.4797H150.454V20H143.283ZM143.283 14.5333V12.1057H149.806V14.5333H143.283ZM143.283 9.41865V6.91693H150.362V9.41865H143.283ZM164.291 20L160.64 14.1627H160.288L155.248 6.91693H158.713L162.308 12.4022H162.66L167.701 20H164.291ZM155.007 20L159.844 12.9952L162.086 14.2553L158.324 20H155.007ZM162.772 13.8291L160.529 12.569L164.161 6.91693H167.478L162.772 13.8291Z" fill="white"/>
<mask id="mask1_15_850" style="mask-type:luminance" maskUnits="userSpaceOnUse" x="29" y="11" width="9" height="12">
<path d="M30.476 22.708C28.5823 21.147 28.2023 16.7334 32.8501 11.7106L36.5501 11.6904L37.1465 15.9508L30.476 22.708Z" fill="white"/>
</mask>
<g mask="url(#mask1_15_850)">
<path d="M28.2023 11.6904H37.1465V22.7079H28.2023V11.6904Z" fill="#C601D4"/>
</g>
<path opacity="0.3" fill-rule="evenodd" clip-rule="evenodd" d="M35.9043 12.1816L37.2678 12.3909L37.1466 15.9504L30.4761 22.7075C30.4761 22.7075 28.7269 19.7007 35.0851 12.9913C35.3711 12.6887 35.6434 12.4198 35.9043 12.1816Z" fill="#4E046D"/>
<mask id="mask2_15_850" style="mask-type:luminance" maskUnits="userSpaceOnUse" x="36" y="4" width="12" height="9">
<path d="M47.2065 5.82091C45.6215 3.94681 41.2025 3.62374 36.2415 8.33688L36.9798 12.7453L40.5366 12.5776L47.2065 5.82091Z" fill="white"/>
</mask>
<g mask="url(#mask2_15_850)">
<path d="M36.2415 3.62451H47.2065V12.7461H36.2415V3.62451Z" fill="#FA00FF"/>
</g>
<path opacity="0.3" fill-rule="evenodd" clip-rule="evenodd" d="M36.4963 11.5812L36.7249 12.9412L40.2817 12.7735L46.9517 6.01688C46.9517 6.01688 43.9225 4.30573 37.2955 10.7506C36.9972 11.0417 36.7323 11.3171 36.4963 11.5812Z" fill="#4E046D"/>
<path opacity="0.3" fill-rule="evenodd" clip-rule="evenodd" d="M37.1154 7.53711C36.7427 7.84145 36.3657 8.17199 35.9865 8.53279L36.7248 12.9412L40.2815 12.7735L41.3376 11.7043L37.1154 7.53711Z" fill="#1E003D"/>
<path opacity="0.3" fill-rule="evenodd" clip-rule="evenodd" d="M31.8693 12.8534C32.1675 12.4773 32.4942 12.0955 32.8501 11.7106L36.5501 11.6904L37.1465 15.9508L36.0899 17.0197L31.8693 12.8534Z" fill="#1E003D"/>
<mask id="mask3_15_850" style="mask-type:luminance" maskUnits="userSpaceOnUse" x="29" y="5" width="16" height="16">
<path d="M44.873 16.9823L34.0595 6.24664C33.0817 5.27593 31.4845 5.28907 30.5159 6.26981C29.5474 7.2515 29.5631 8.84443 30.5391 9.81344L41.329 20.5263L44.873 16.9823Z" fill="white"/>
</mask>
<g mask="url(#mask3_15_850)">
<path d="M29.5474 5.27588H44.873V20.5263H29.5474V5.27588Z" fill="#C601D4"/>
</g>
<path opacity="0.3" fill-rule="evenodd" clip-rule="evenodd" d="M43.2754 18.5802L36.5817 11.9164L36.5471 11.8827L36.3536 11.6909L34.2142 9.58038C33.2334 8.61269 31.6391 8.62281 30.6706 9.60365C30.6141 9.66191 30.5598 9.7214 30.5091 9.78448C29.558 8.81329 29.5572 7.24136 30.5161 6.27017C31.4846 5.28933 33.0789 5.27931 34.0597 6.247L36.1864 8.34571L44.8762 16.9795L43.2754 18.5802Z" fill="white"/>
<path opacity="0.3" fill-rule="evenodd" clip-rule="evenodd" d="M42.977 18.8784C39.6712 15.5768 35.9437 11.8554 35.7891 11.6939C35.243 11.1233 34.7771 10.6303 34.4584 10.2818C32.8712 8.55002 31.6026 9.00577 31.4533 9.06762C32.3645 8.67315 33.4674 8.84254 34.214 9.58032L36.3534 11.6908L36.5469 11.8826L36.5815 11.9163L43.2751 18.5802L42.977 18.8784Z" fill="#1E003D"/>
<g filter="url(#filter0_d_15_850)">
<path d="M8.26671 7.84184C8.36611 7.78593 8.46552 7.73623 8.56492 7.68652H8.55871C8.46552 7.73623 8.36611 7.77972 8.26671 7.84184ZM16.4801 9.56901C16.8342 10.0412 17.12 10.5693 17.3437 11.1533C17.6667 11.9672 17.8158 12.837 17.8158 13.7689C17.8158 14.6946 17.6605 15.5644 17.3437 16.3721C17.0268 17.186 16.5857 17.8942 16.0203 18.4969C15.455 19.1057 14.7778 19.5841 14.0012 19.9382C13.2183 20.2924 12.3672 20.4663 11.4353 20.4663C10.6897 20.4663 9.97524 20.3421 9.29804 20.1122C8.61462 19.8761 8.00577 19.5593 7.44661 19.1368C7.24159 19.0125 7.07384 18.9628 6.93716 18.9877C6.80669 19.0063 6.66379 19.1119 6.53332 19.2921L3.62572 23.4734C3.50146 23.7281 3.48903 23.9393 3.57601 24.1071C3.6692 24.2748 3.80589 24.4239 3.99849 24.5357C5.06709 25.2502 6.20404 25.8032 7.43418 26.1946C8.65811 26.586 9.9566 26.7786 11.3172 26.7786C12.5163 26.7786 13.6595 26.6295 14.7653 26.3188C15.8712 26.0144 16.9026 25.5795 17.8655 25.0141C18.8285 24.4488 19.7045 23.7716 20.4936 22.9825C21.2826 22.1997 21.9598 21.3237 22.5314 20.3669C23.0968 19.4102 23.5379 18.3726 23.8423 17.2667C23.8858 17.1052 23.9293 16.9437 23.9666 16.7821C22.5562 13.2657 19.9344 10.998 16.4801 9.56901Z" fill="url(#paint0_linear_15_850)"/>
</g>
<g filter="url(#filter1_d_15_850)">
<path fill-rule="evenodd" clip-rule="evenodd" d="M27.1037 21.9324C27.5573 15.2722 26.06 8.74249 22.1645 4.64201C18.53 0.814905 12.4973 -0.607836 7.4898 0.988864C6.20995 1.3927 5.01709 1.97049 3.90499 2.71603C3.69997 2.83408 3.55707 2.98319 3.46388 3.15715C3.36447 3.33111 3.38932 3.55477 3.51979 3.82192L6.54545 8.18333C6.68213 8.36972 6.83124 8.47534 6.96792 8.50019C7.11081 8.52504 7.28478 8.46912 7.50223 8.33866C16.3058 3.35596 25.4387 12.3708 27.0416 21.5844C27.0665 21.7087 27.0913 21.8205 27.1037 21.9324Z" fill="url(#paint1_linear_15_850)"/>
</g>
<defs>
<filter id="filter0_d_15_850" x="0.163922" y="4.08365" width="27.1587" height="25.8045" filterUnits="userSpaceOnUse" color-interpolation-filters="sRGB">
<feFlood flood-opacity="0" result="BackgroundImageFix"/>
<feColorMatrix in="SourceAlpha" type="matrix" values="0 0 0 0 0 0 0 0 0 0 0 0 0 0 0 0 0 0 127 0" result="hardAlpha"/>
<feOffset dy="-0.246772"/>
<feGaussianBlur stdDeviation="1.67805"/>
<feComposite in2="hardAlpha" operator="out"/>
<feColorMatrix type="matrix" values="0 0 0 0 0 0 0 0 0 0 0 0 0 0 0 0 0 0 0.25 0"/>
<feBlend mode="normal" in2="BackgroundImageFix" result="effect1_dropShadow_15_850"/>
<feBlend mode="normal" in="SourceGraphic" in2="effect1_dropShadow_15_850" result="shape"/>
</filter>
<filter id="filter1_d_15_850" x="2.90953" y="0.34375" width="24.7661" height="22.5755" filterUnits="userSpaceOnUse" color-interpolation-filters="sRGB">
<feFlood flood-opacity="0" result="BackgroundImageFix"/>
<feColorMatrix in="SourceAlpha" type="matrix" values="0 0 0 0 0 0 0 0 0 0 0 0 0 0 0 0 0 0 127 0" result="hardAlpha"/>
<feOffset dy="0.493544"/>
<feGaussianBlur stdDeviation="0.246772"/>
<feComposite in2="hardAlpha" operator="out"/>
<feColorMatrix type="matrix" values="0 0 0 0 0 0 0 0 0 0 0 0 0 0 0 0 0 0 0.25 0"/>
<feBlend mode="normal" in2="BackgroundImageFix" result="effect1_dropShadow_15_850"/>
<feBlend mode="normal" in="SourceGraphic" in2="effect1_dropShadow_15_850" result="shape"/>
</filter>
<linearGradient id="paint0_linear_15_850" x1="23.9686" y1="17.2309" x2="3.52352" y2="17.2309" gradientUnits="userSpaceOnUse">
<stop stop-color="#C601D4"/>
<stop offset="1" stop-color="#B701F8"/>
</linearGradient>
<linearGradient id="paint1_linear_15_850" x1="27.1845" y1="11.1362" x2="3.40715" y2="11.1362" gradientUnits="userSpaceOnUse">
<stop stop-color="#C601D4"/>
<stop offset="1" stop-color="#B701F8"/>
</linearGradient>
</defs>
</svg>
