<svg width="10" height="6" viewBox="0 0 10 6" fill="none" xmlns="http://www.w3.org/2000/svg">
<path opacity="0.8" d="M8.56365 0.842102L4.95859 4.46906L1.35352 0.842102C1.23593 0.727837 1.07843 0.66461 0.914955 0.666039C0.751476 0.667469 0.595095 0.733439 0.479493 0.849743C0.363892 0.966046 0.298319 1.12338 0.296899 1.28785C0.295478 1.45232 0.358323 1.61077 0.471898 1.72908L4.5159 5.79765C4.5739 5.85624 4.64291 5.90261 4.71892 5.93406C4.79493 5.96551 4.8764 5.9814 4.95859 5.98081C5.04075 5.98123 5.12217 5.96526 5.19815 5.93382C5.27414 5.90238 5.34317 5.8561 5.40127 5.79765L9.44528 1.72908C9.55885 1.61077 9.6217 1.45232 9.62028 1.28785C9.61886 1.12338 9.55328 0.966046 9.43768 0.849743C9.32208 0.733439 9.1657 0.667469 9.00222 0.666039C8.83874 0.66461 8.68124 0.727837 8.56365 0.842102Z" fill="#F5F5F5" fill-opacity="0.7"/>
</svg>
