<svg width="14" height="8" viewBox="0 0 14 8" fill="none" xmlns="http://www.w3.org/2000/svg">
<path id="Vector" opacity="0.9" d="M2.02182 0.265049L6.87062 5.72444L11.7194 0.265049C11.8776 0.0930549 12.0894 -0.0021156 12.3093 3.56934e-05C12.5292 0.00218699 12.7395 0.101488 12.895 0.276551C13.0505 0.451614 13.1387 0.688433 13.1406 0.936C13.1425 1.18357 13.058 1.42208 12.9052 1.60015L7.46603 7.72427C7.38803 7.81246 7.29521 7.88226 7.19298 7.9296C7.09075 7.97694 6.98116 8.00086 6.87062 7.99998C6.76012 8.0006 6.65061 7.97656 6.54841 7.92923C6.44621 7.88191 6.35335 7.81225 6.27522 7.72427L0.83603 1.60015C0.683271 1.42208 0.598745 1.18357 0.600656 0.936C0.602567 0.688433 0.690761 0.451614 0.846245 0.276551C1.00173 0.101488 1.21206 0.00218699 1.43194 3.56934e-05C1.65182 -0.0021156 1.86365 0.0930549 2.02182 0.265049Z" fill="#ffffff"/>
</svg>
