<svg width="89" height="88" viewBox="0 0 89 88" fill="none" xmlns="http://www.w3.org/2000/svg">
<g clip-path="url(#clip0_598_451)">
<path d="M44.1898 17.1439C45.5598 17.1441 46.8737 17.6884 47.8424 18.6571C48.8111 19.6259 49.3555 20.9397 49.3557 22.3098C52.323 23.7124 54.8526 25.8962 56.6733 28.6269C58.4941 31.3577 59.5373 34.5326 59.6911 37.8111L59.6875 45.5599C59.8819 47.1662 60.4508 48.7044 61.3484 50.0506C62.246 51.3968 63.4471 52.5134 64.8552 53.3106L23.5262 53.3124C24.9337 52.5152 26.1344 51.3988 27.0316 50.0529C27.9289 48.7071 28.4976 47.1693 28.6921 45.5636L28.6885 37.8111C28.8423 34.5326 29.8855 31.3577 31.7062 28.6269C33.527 25.8962 36.0566 23.7124 39.0239 22.3098C39.0241 20.9397 39.5684 19.6259 40.5372 18.6571C41.5059 17.6884 42.8198 17.1441 44.1898 17.1439V17.1439Z" stroke="black" stroke-width="3" stroke-linecap="round" stroke-linejoin="round"/>
<path d="M36.4397 53.3103L36.4397 55.8933C36.4397 57.9489 37.2562 59.9203 38.7098 61.3738C40.1633 62.8274 42.1347 63.6439 44.1903 63.6439C46.2459 63.6439 48.2173 62.8274 49.6709 61.3738C51.1244 59.9203 51.941 57.9489 51.941 55.8933L51.941 53.3103" stroke="black" stroke-width="3" stroke-linecap="round" stroke-linejoin="round"/>
</g>
<defs>
<clipPath id="clip0_598_451">
<rect width="62" height="62" fill="white" transform="translate(0.349609 44.0474) rotate(-45)"/>
</clipPath>
</defs>
</svg>
