<svg width="40" height="40" viewBox="0 0 40 40" fill="none" xmlns="http://www.w3.org/2000/svg">
<g filter="url(#filter0_bii_344_23795)">
<circle cx="20" cy="20" r="20" fill="white" fill-opacity="0.04"/>
</g>
<path d="M20.0645 13.0781C17.6261 13.0781 15.6515 15.0527 15.6515 17.4911V18.8826C15.6515 19.3332 15.466 20.0091 15.2341 20.3934L14.3926 21.7981C13.8757 22.6661 14.2335 23.6336 15.1877 23.9516C18.355 25.0052 21.7807 25.0052 24.948 23.9516C25.8425 23.6534 26.2268 22.6065 25.7431 21.7981L24.9016 20.3934C24.6697 20.0091 24.4842 19.3266 24.4842 18.8826V17.4911C24.4775 15.066 22.4897 13.0781 20.0645 13.0781Z" stroke="white" stroke-width="1.03713" stroke-miterlimit="10" stroke-linecap="round"/>
<path d="M22.2577 24.2227C22.2577 25.4352 21.2638 26.4292 20.0512 26.4292C19.4483 26.4292 18.8917 26.1774 18.4941 25.7798C18.0965 25.3822 17.8447 24.8256 17.8447 24.2227" stroke="white" stroke-width="1.03713" stroke-miterlimit="10"/>
<circle cx="23.8541" cy="14.1739" r="2.41998" fill="white"/>
<defs>
<filter id="filter0_bii_344_23795" x="-5.27863" y="-5.27863" width="50.5573" height="50.5573" filterUnits="userSpaceOnUse" color-interpolation-filters="sRGB">
<feFlood flood-opacity="0" result="BackgroundImageFix"/>
<feGaussianBlur in="BackgroundImageFix" stdDeviation="2.63932"/>
<feComposite in2="SourceAlpha" operator="in" result="effect1_backgroundBlur_344_23795"/>
<feBlend mode="normal" in="SourceGraphic" in2="effect1_backgroundBlur_344_23795" result="shape"/>
<feColorMatrix in="SourceAlpha" type="matrix" values="0 0 0 0 0 0 0 0 0 0 0 0 0 0 0 0 0 0 127 0" result="hardAlpha"/>
<feOffset/>
<feGaussianBlur stdDeviation="3.43111"/>
<feComposite in2="hardAlpha" operator="arithmetic" k2="-1" k3="1"/>
<feColorMatrix type="matrix" values="0 0 0 0 1 0 0 0 0 1 0 0 0 0 1 0 0 0 0.09 0"/>
<feBlend mode="normal" in2="shape" result="effect2_innerShadow_344_23795"/>
<feColorMatrix in="SourceAlpha" type="matrix" values="0 0 0 0 0 0 0 0 0 0 0 0 0 0 0 0 0 0 127 0" result="hardAlpha"/>
<feOffset dy="0.791795"/>
<feGaussianBlur stdDeviation="0.395898"/>
<feComposite in2="hardAlpha" operator="arithmetic" k2="-1" k3="1"/>
<feColorMatrix type="matrix" values="0 0 0 0 1 0 0 0 0 1 0 0 0 0 1 0 0 0 0.16 0"/>
<feBlend mode="normal" in2="effect2_innerShadow_344_23795" result="effect3_innerShadow_344_23795"/>
</filter>
</defs>
</svg>
