<svg width="40" height="40" viewBox="0 0 40 40" fill="none" xmlns="http://www.w3.org/2000/svg">
<g filter="url(#filter0_bii_1596_183)">
<circle cx="20" cy="20" r="20" fill="white" fill-opacity="0.04"/>
</g>
<path d="M11 19.9756C11 15.7445 11 13.6289 12.3144 12.3144C13.6289 11 15.7445 11 19.9756 11C24.2068 11 26.3223 11 27.6368 12.3144C28.9512 13.6289 28.9512 15.7445 28.9512 19.9756C28.9512 24.2068 28.9512 26.3223 27.6368 27.6368C26.3223 28.9512 24.2068 28.9512 19.9756 28.9512C15.7445 28.9512 13.6289 28.9512 12.3144 27.6368C11 26.3223 11 24.2068 11 19.9756Z" stroke="white" stroke-width="1.4172"/>
<path d="M15.7239 24.7C17.9269 22.3926 22.0004 22.284 24.2271 24.7M22.3328 17.614C22.3328 18.9185 21.2738 19.976 19.9675 19.976C18.6611 19.976 17.6021 18.9185 17.6021 17.614C17.6021 16.3095 18.6611 15.252 19.9675 15.252C21.2738 15.252 22.3328 16.3095 22.3328 17.614Z" stroke="white" stroke-width="1.4172" stroke-linecap="round"/>
<defs>
<filter id="filter0_bii_1596_183" x="-5.27863" y="-5.27863" width="50.5573" height="50.5573" filterUnits="userSpaceOnUse" color-interpolation-filters="sRGB">
<feFlood flood-opacity="0" result="BackgroundImageFix"/>
<feGaussianBlur in="BackgroundImageFix" stdDeviation="2.63932"/>
<feComposite in2="SourceAlpha" operator="in" result="effect1_backgroundBlur_1596_183"/>
<feBlend mode="normal" in="SourceGraphic" in2="effect1_backgroundBlur_1596_183" result="shape"/>
<feColorMatrix in="SourceAlpha" type="matrix" values="0 0 0 0 0 0 0 0 0 0 0 0 0 0 0 0 0 0 127 0" result="hardAlpha"/>
<feOffset/>
<feGaussianBlur stdDeviation="3.43111"/>
<feComposite in2="hardAlpha" operator="arithmetic" k2="-1" k3="1"/>
<feColorMatrix type="matrix" values="0 0 0 0 1 0 0 0 0 1 0 0 0 0 1 0 0 0 0.09 0"/>
<feBlend mode="normal" in2="shape" result="effect2_innerShadow_1596_183"/>
<feColorMatrix in="SourceAlpha" type="matrix" values="0 0 0 0 0 0 0 0 0 0 0 0 0 0 0 0 0 0 127 0" result="hardAlpha"/>
<feOffset dy="0.791795"/>
<feGaussianBlur stdDeviation="0.395898"/>
<feComposite in2="hardAlpha" operator="arithmetic" k2="-1" k3="1"/>
<feColorMatrix type="matrix" values="0 0 0 0 1 0 0 0 0 1 0 0 0 0 1 0 0 0 0.16 0"/>
<feBlend mode="normal" in2="effect2_innerShadow_1596_183" result="effect3_innerShadow_1596_183"/>
</filter>
</defs>
</svg>
