<svg width="23" height="23" viewBox="0 0 23 23" fill="none" xmlns="http://www.w3.org/2000/svg">
<path d="M4.53596 22.464C4.79224 22.7203 5.20776 22.7203 5.46404 22.464L9.64039 18.2877C9.89667 18.0314 9.89667 17.6159 9.64039 17.3596C9.38411 17.1033 8.96859 17.1033 8.71231 17.3596L5 21.0719L1.28769 17.3596C1.03141 17.1033 0.615894 17.1033 0.359612 17.3596C0.103331 17.6159 0.103331 18.0314 0.359612 18.2877L4.53596 22.464ZM4.34375 1L4.34375 22L5.65625 22L5.65625 1L4.34375 1Z" fill="#236DFF"/>
<path d="M17.714 0.535961C17.4578 0.27968 17.0422 0.27968 16.786 0.535961L12.6096 4.71231C12.3533 4.96859 12.3533 5.38411 12.6096 5.64039C12.8659 5.89667 13.2814 5.89667 13.5377 5.64039L17.25 1.92808L20.9623 5.64039C21.2186 5.89667 21.6341 5.89667 21.8904 5.64039C22.1467 5.38411 22.1467 4.96859 21.8904 4.71231L17.714 0.535961ZM17.9062 22L17.9062 1L16.5937 1L16.5938 22L17.9062 22Z" fill="#236DFF"/>
</svg>
