<svg width="40" height="40" viewBox="0 0 40 40" fill="none" xmlns="http://www.w3.org/2000/svg">
<g filter="url(#filter0_bii_344_23803)">
<circle cx="20" cy="20" r="20" fill="white" fill-opacity="0.04"/>
</g>
<path d="M13.886 22.9924C14.9941 24.1021 16.4698 24.7682 18.0349 24.8654C19.6001 24.9625 21.1468 24.4839 22.3836 23.5198L26.6392 27.7754C26.7901 27.9211 26.9922 28.0018 27.202 28C27.4119 27.9981 27.6126 27.914 27.7609 27.7656C27.9093 27.6173 27.9935 27.4165 27.9953 27.2067C27.9971 26.9969 27.9164 26.7948 27.7707 26.6439L23.5151 22.3883C24.522 21.0961 24.9981 19.4684 24.8462 17.8372C24.6943 16.2061 23.9259 14.6943 22.6977 13.6102C21.4695 12.5261 19.874 11.9514 18.2366 12.0032C16.5992 12.0551 15.0432 12.7295 13.886 13.8891C13.2881 14.4867 12.8138 15.1963 12.4902 15.9773C12.1666 16.7583 12 17.5954 12 18.4408C12 19.2862 12.1666 20.1233 12.4902 20.9043C12.8138 21.6852 13.2881 22.3948 13.886 22.9924ZM15.0176 15.0222C15.8086 14.2312 16.8495 13.7389 17.9629 13.6292C19.0762 13.5195 20.1932 13.7993 21.1234 14.4208C22.0536 15.0423 22.7395 15.9671 23.0643 17.0377C23.3891 18.1082 23.3327 19.2583 22.9047 20.2919C22.4766 21.3255 21.7034 22.1787 20.7168 22.7062C19.7302 23.2337 18.5913 23.4027 17.494 23.1846C16.3967 22.9664 15.4091 22.3746 14.6992 21.5099C13.9894 20.6452 13.6013 19.5611 13.6012 18.4424C13.599 17.8067 13.723 17.1768 13.9662 16.5895C14.2093 16.0021 14.5667 15.4688 15.0176 15.0206V15.0222Z" fill="white"/>
<defs>
<filter id="filter0_bii_344_23803" x="-5.27863" y="-5.27863" width="50.5573" height="50.5573" filterUnits="userSpaceOnUse" color-interpolation-filters="sRGB">
<feFlood flood-opacity="0" result="BackgroundImageFix"/>
<feGaussianBlur in="BackgroundImageFix" stdDeviation="2.63932"/>
<feComposite in2="SourceAlpha" operator="in" result="effect1_backgroundBlur_344_23803"/>
<feBlend mode="normal" in="SourceGraphic" in2="effect1_backgroundBlur_344_23803" result="shape"/>
<feColorMatrix in="SourceAlpha" type="matrix" values="0 0 0 0 0 0 0 0 0 0 0 0 0 0 0 0 0 0 127 0" result="hardAlpha"/>
<feOffset/>
<feGaussianBlur stdDeviation="3.43111"/>
<feComposite in2="hardAlpha" operator="arithmetic" k2="-1" k3="1"/>
<feColorMatrix type="matrix" values="0 0 0 0 1 0 0 0 0 1 0 0 0 0 1 0 0 0 0.09 0"/>
<feBlend mode="normal" in2="shape" result="effect2_innerShadow_344_23803"/>
<feColorMatrix in="SourceAlpha" type="matrix" values="0 0 0 0 0 0 0 0 0 0 0 0 0 0 0 0 0 0 127 0" result="hardAlpha"/>
<feOffset dy="0.791795"/>
<feGaussianBlur stdDeviation="0.395898"/>
<feComposite in2="hardAlpha" operator="arithmetic" k2="-1" k3="1"/>
<feColorMatrix type="matrix" values="0 0 0 0 1 0 0 0 0 1 0 0 0 0 1 0 0 0 0.16 0"/>
<feBlend mode="normal" in2="effect2_innerShadow_344_23803" result="effect3_innerShadow_344_23803"/>
</filter>
</defs>
</svg>
