<svg width="16" height="16" viewBox="0 0 16 16" fill="none" xmlns="http://www.w3.org/2000/svg">
<path d="M1.88604 10.9924C2.99413 12.1021 4.46977 12.7682 6.03495 12.8654C7.60012 12.9625 9.1468 12.4839 10.3836 11.5198L14.6392 15.7754C14.7901 15.9211 14.9922 16.0018 15.202 16C15.4119 15.9981 15.6126 15.914 15.7609 15.7656C15.9093 15.6173 15.9935 15.4165 15.9953 15.2067C15.9971 14.9969 15.9164 14.7948 15.7707 14.6439L11.5151 10.3883C12.522 9.09605 12.9981 7.46839 12.8462 5.83723C12.6943 4.20608 11.9259 2.6943 10.6977 1.61022C9.46946 0.526132 7.87396 -0.0486034 6.23657 0.00322354C4.59918 0.0550504 3.04323 0.729536 1.88604 1.88912C1.28811 2.48675 0.813791 3.19632 0.490178 3.97731C0.166565 4.7583 0 5.5954 0 6.44078C0 7.28617 0.166565 8.12327 0.490178 8.90425C0.813791 9.68525 1.28811 10.3948 1.88604 10.9924ZM3.01755 3.02224C3.80863 2.23118 4.84952 1.73888 5.96287 1.62921C7.07622 1.51954 8.19316 1.7993 9.12337 2.42081C10.0536 3.04232 10.7395 3.96714 11.0643 5.03769C11.3891 6.10824 11.3327 7.25829 10.9047 8.2919C10.4766 9.32552 9.70343 10.1787 8.71683 10.7062C7.73024 11.2337 6.59128 11.4027 5.49401 11.1846C4.39675 10.9664 3.40905 10.3746 2.69922 9.50991C1.98939 8.6452 1.60133 7.56113 1.60116 6.44238C1.59896 5.80667 1.72304 5.17684 1.96618 4.58946C2.20932 4.00207 2.56669 3.46882 3.01755 3.02064V3.02224Z" fill="white"/>
</svg>
