<svg width="30" height="19" viewBox="0 0 30 19" fill="none" xmlns="http://www.w3.org/2000/svg">
<path d="M0 0.145813H30V19H0V0.145813Z" fill="white"/>
<path d="M0 0.145813H30V1.59616H0V0.145813ZM0 3.04651H30V4.49686H0V3.04651ZM0 5.94709H30V7.39744H0V5.94709ZM0 8.84779H30V10.2981H0V8.84779ZM0 11.7484H30V13.1987H0V11.7484ZM0 14.6491H30V16.0994H0V14.6491ZM0 17.5496H30V19H0V17.5496Z" fill="#B22234"/>
<path d="M0 0.145813H12V10.298H0V0.145813Z" fill="#3C3B6E"/>
<path d="M0.563812 0.970003L0.849712 1.21802L0.740512 1.61935L1.02631 1.37134L1.31221 1.61935L1.20301 1.21802L1.48881 0.970003H1.13551L1.02631 0.568787L0.917112 0.970003H0.563812ZM2.55331 0.970003L2.83911 1.21802L2.72991 1.61935L3.01581 1.37134L3.30171 1.61935L3.19251 1.21802L3.47831 0.970003H3.12501L3.01581 0.568787L2.90661 0.970003H2.55331ZM4.54281 0.970003L4.82861 1.21802L4.71941 1.61935L5.00531 1.37134L5.29111 1.61935L5.18191 1.21802L5.46781 0.970003H5.11451L5.00531 0.568787L4.89611 0.970003H4.54281ZM6.53231 0.970003L6.81811 1.21802L6.70891 1.61935L6.99481 1.37134L7.28061 1.61935L7.17141 1.21802L7.45731 0.970003H7.10391L6.99481 0.568787L6.88561 0.970003H6.53231ZM8.52171 0.970003L8.80761 1.21802L8.69841 1.61935L8.98421 1.37134L9.27011 1.61935L9.16091 1.21802L9.44671 0.970003H9.09341L8.98421 0.568787L8.87501 0.970003H8.52171ZM10.5112 0.970003L10.797 1.21802L10.6878 1.61935L10.9737 1.37134L11.2595 1.61935L11.1503 1.21802L11.4362 0.970003H11.0829L10.9737 0.568787L10.8645 0.970003H10.5112ZM1.55851 1.98821L1.84441 2.23622L1.73521 2.63744L2.02111 2.38943L2.30691 2.63744L2.19771 2.23622L2.48361 1.98821H2.13021L2.02111 1.58687L1.91191 1.98821H1.55851ZM3.54801 1.98821L3.83391 2.23622L3.72471 2.63744L4.01051 2.38943L4.29641 2.63744L4.18721 2.23622L4.47301 1.98821H4.11971L4.01051 1.58687L3.90131 1.98821H3.54801ZM5.53751 1.98821L5.82341 2.23622L5.71421 2.63744L6.00001 2.38943L6.28591 2.63744L6.17671 2.23622L6.46251 1.98821H6.10921L6.00001 1.58687L5.89081 1.98821H5.53751ZM7.52701 1.98821L7.81281 2.23622L7.70361 2.63744L7.98951 2.38943L8.27531 2.63744L8.16611 2.23622L8.45201 1.98821H8.09871L7.98951 1.58687L7.88031 1.98821H7.52701ZM9.51641 1.98821L9.80231 2.23622L9.69311 2.63744L9.97891 2.38943L10.2648 2.63744L10.1556 2.23622L10.4414 1.98821H10.0881L9.97891 1.58687L9.86981 1.98821H9.51641ZM0.563812 3.0063L0.849712 3.25431L0.740512 3.65565L1.02631 3.40763L1.31221 3.65565L1.20301 3.25431L1.48881 3.0063H1.13551L1.02631 2.60508L0.917112 3.0063H0.563812ZM2.55331 3.0063L2.83911 3.25431L2.72991 3.65565L3.01581 3.40763L3.30171 3.65565L3.19251 3.25431L3.47831 3.0063H3.12501L3.01581 2.60508L2.90661 3.0063H2.55331ZM4.54281 3.0063L4.82861 3.25431L4.71941 3.65565L5.00531 3.40763L5.29111 3.65565L5.18191 3.25431L5.46781 3.0063H5.11451L5.00531 2.60508L4.89611 3.0063H4.54281ZM6.53231 3.0063L6.81811 3.25431L6.70891 3.65565L6.99481 3.40763L7.28061 3.65565L7.17141 3.25431L7.45731 3.0063H7.10391L6.99481 2.60508L6.88561 3.0063H6.53231ZM8.52171 3.0063L8.80761 3.25431L8.69841 3.65565L8.98421 3.40763L9.27011 3.65565L9.16091 3.25431L9.44671 3.0063H9.09341L8.98421 2.60508L8.87501 3.0063H8.52171ZM10.5112 3.0063L10.797 3.25431L10.6878 3.65565L10.9737 3.40763L11.2595 3.65565L11.1503 3.25431L11.4362 3.0063H11.0829L10.9737 2.60508L10.8645 3.0063H10.5112ZM1.58311 4.02785L1.86891 4.27586L1.75981 4.67708L2.04561 4.42906L2.33151 4.67708L2.22231 4.27574L2.50811 4.02785H2.15481L2.04561 3.62651L1.93641 4.02785H1.58311ZM3.57261 4.02785L3.85841 4.27586L3.74921 4.67708L4.03511 4.42906L4.32091 4.67708L4.21171 4.27574L4.49761 4.02785H4.14431L4.03511 3.62651L3.92591 4.02785H3.57261ZM5.56211 4.02785L5.84791 4.27586L5.73871 4.67708L6.02461 4.42906L6.31041 4.67708L6.20121 4.27574L6.48711 4.02785H6.13371L6.02461 3.62651L5.91541 4.02785H5.56211ZM7.55151 4.02785L7.83741 4.27586L7.72821 4.67708L8.01401 4.42906L8.29991 4.67708L8.19071 4.27574L8.47651 4.02785H8.12321L8.01401 3.62651L7.90481 4.02785H7.55151ZM9.54101 4.02785L9.82681 4.27586L9.71761 4.67708L10.0035 4.42906L10.2893 4.67708L10.1801 4.27574L10.466 4.02785H10.1127L10.0035 3.62651L9.89431 4.02785H9.54101ZM0.594012 5.03745L0.879912 5.28535L0.770712 5.68668L1.05651 5.43867L1.34241 5.68668L1.23321 5.28535L1.51901 5.03745H1.16571L1.05651 4.63612L0.947312 5.03745H0.594012ZM2.58351 5.03745L2.86931 5.28535L2.76011 5.68668L3.04601 5.43867L3.33181 5.68668L3.22271 5.28535L3.50851 5.03745H3.15521L3.04601 4.63612L2.93681 5.03745H2.58351ZM4.57301 5.03745L4.85881 5.28535L4.74961 5.68668L5.03551 5.43867L5.32131 5.68668L5.21211 5.28535L5.49801 5.03745H5.14471L5.03551 4.63612L4.92631 5.03745H4.57301ZM6.56241 5.03745L6.84831 5.28535L6.73911 5.68668L7.02491 5.43867L7.31081 5.68668L7.20161 5.28535L7.48751 5.03745H7.13411L7.02491 4.63612L6.91581 5.03745H6.56241ZM8.55191 5.03745L8.83771 5.28535L8.72861 5.68668L9.01441 5.43867L9.30031 5.68668L9.19111 5.28535L9.47691 5.03745H9.12361L9.01441 4.63612L8.90521 5.03745H8.55191ZM10.5414 5.03745L10.8272 5.28535L10.718 5.68668L11.0039 5.43867L11.2897 5.68668L11.1805 5.28535L11.4664 5.03745H11.1131L11.0039 4.63612L10.8947 5.03745H10.5414ZM0.612712 7.04139L0.898512 7.2894L0.789312 7.69074L1.07521 7.44272L1.36101 7.69074L1.25181 7.2894L1.53771 7.04139H1.18441L1.07521 6.64017L0.966012 7.04139H0.612712ZM2.60211 7.04139L2.88801 7.2894L2.77881 7.69074L3.06461 7.44272L3.35051 7.69074L3.24131 7.2894L3.52711 7.04139H3.17381L3.06461 6.64017L2.95541 7.04139H2.60211ZM4.59161 7.04139L4.87741 7.2894L4.76831 7.69074L5.05411 7.44272L5.34001 7.69074L5.23081 7.2894L5.51661 7.04139H5.16331L5.05411 6.64017L4.94491 7.04139H4.59161ZM6.58111 7.04139L6.86691 7.2894L6.75771 7.69074L7.04361 7.44272L7.32941 7.69074L7.22031 7.2894L7.50611 7.04139H7.15281L7.04361 6.64017L6.93441 7.04139H6.58111ZM8.57051 7.04139L8.85641 7.2894L8.74721 7.69074L9.03301 7.44272L9.31891 7.69074L9.20971 7.2894L9.49561 7.04139H9.14221L9.03301 6.64017L8.92391 7.04139H8.57051ZM10.56 7.04139L10.8458 7.2894L10.7367 7.69074L11.0225 7.44272L11.3084 7.69074L11.1992 7.2894L11.485 7.04139H11.1317L11.0225 6.64017L10.9133 7.04139H10.56ZM0.588412 9.06896L0.874212 9.31698L0.765012 9.71831L1.05091 9.4703L1.33671 9.71831L1.22751 9.31698L1.51341 9.06896H1.16001L1.05091 8.66775L0.941712 9.06896H0.588412ZM2.57781 9.06896L2.86371 9.31698L2.75451 9.71831L3.04031 9.4703L3.32621 9.71831L3.21701 9.31698L3.50281 9.06896H3.14951L3.04031 8.66775L2.93111 9.06896H2.57781ZM4.56731 9.06896L4.85311 9.31698L4.74401 9.71831L5.02981 9.4703L5.31571 9.71831L5.20651 9.31698L5.49231 9.06896H5.13901L5.02981 8.66775L4.92061 9.06896H4.56731ZM6.55681 9.06896L6.84261 9.31698L6.73341 9.71831L7.01931 9.4703L7.30511 9.71831L7.19601 9.31698L7.48181 9.06896H7.12851L7.01931 8.66775L6.91011 9.06896H6.55681ZM8.54621 9.06896L8.83211 9.31698L8.72291 9.71831L9.00871 9.4703L9.29461 9.71831L9.18541 9.31698L9.47131 9.06896H9.11791L9.00871 8.66775L8.89961 9.06896H8.54621ZM10.5357 9.06896L10.8215 9.31698L10.7124 9.71831L10.9982 9.4703L11.2841 9.71831L11.1749 9.31698L11.4607 9.06896H11.1074L10.9982 8.66775L10.889 9.06896H10.5357ZM1.58901 6.02939L1.87481 6.2774L1.76571 6.67862L2.05151 6.43061L2.33741 6.67862L2.22821 6.2774L2.51401 6.02939H2.16071L2.05151 5.62805L1.94231 6.02939H1.58901ZM3.57851 6.02939L3.86431 6.2774L3.75511 6.67862L4.04101 6.43061L4.32681 6.67862L4.21771 6.2774L4.50351 6.02939H4.15021L4.04101 5.62805L3.93181 6.02939H3.57851ZM5.56801 6.02939L5.85381 6.2774L5.74461 6.67862L6.03051 6.43061L6.31631 6.67862L6.20711 6.2774L6.49301 6.02939H6.13971L6.03051 5.62805L5.92131 6.02939H5.56801ZM7.55741 6.02939L7.84331 6.2774L7.73411 6.67862L8.01991 6.43061L8.30581 6.67862L8.19661 6.2774L8.48241 6.02939H8.12911L8.01991 5.62805L7.91071 6.02939H7.55741ZM9.54691 6.02939L9.83271 6.2774L9.72351 6.67862L10.0094 6.43061L10.2952 6.67862L10.1861 6.2774L10.4719 6.02939H10.1186L10.0094 5.62805L9.90021 6.02939H9.54691ZM1.58311 8.05374L1.86901 8.30175L1.75981 8.70309L2.04561 8.45508L2.33151 8.70309L2.22231 8.30175L2.50811 8.05374H2.15481L2.04561 7.65253L1.93641 8.05374H1.58311ZM3.57261 8.05374L3.85841 8.30175L3.74921 8.70309L4.03511 8.45508L4.32101 8.70309L4.21181 8.30175L4.49761 8.05374H4.14431L4.03511 7.65253L3.92591 8.05374H3.57261ZM5.56211 8.05374L5.84791 8.30175L5.73871 8.70309L6.02461 8.45508L6.31041 8.70309L6.20121 8.30175L6.48711 8.05374H6.13381L6.02461 7.65253L5.91541 8.05374H5.56211ZM7.55151 8.05374L7.83741 8.30175L7.72821 8.70309L8.01401 8.45508L8.29991 8.70309L8.19071 8.30175L8.47651 8.05374H8.12321L8.01401 7.65253L7.90481 8.05374H7.55151ZM9.54101 8.05374L9.82681 8.30175L9.71761 8.70309L10.0035 8.45508L10.2893 8.70309L10.1802 8.30175L10.466 8.05374H10.1127L10.0035 7.65253L9.89431 8.05374H9.54101Z" fill="white"/>
</svg>
